<svg width="209" height="71" viewBox="0 0 209 71" fill="none" xmlns="http://www.w3.org/2000/svg">
<path d="M9.76043 66.3373C9.19696 69.1223 7.30575 70.2816 5.15548 70.2816C2.0596 70.2816 0 67.8981 0 64.3683C0 60.8385 2.05313 58.4551 5.15548 58.4551C7.29928 58.4551 9.20343 59.6338 9.76043 62.3994H7.33166C6.85238 61.4603 6.02337 60.9421 5.0389 60.9421C3.5363 60.9421 2.37048 62.0885 2.37048 64.3683C2.37048 66.6481 3.52983 67.7945 5.0389 67.7945C6.02337 67.7945 6.85886 67.2764 7.33166 66.3373H9.76043Z" fill="black"/>
<path d="M17.7209 70.2884C14.625 70.2884 12.5654 67.905 12.5654 64.3752C12.5654 60.8453 14.6185 58.4619 17.7209 58.4619C20.8233 58.4619 22.8569 60.8453 22.8569 64.3752C22.8569 67.905 20.8038 70.2884 17.7209 70.2884ZM17.7209 67.8143C19.2883 67.8143 20.4929 66.7003 20.4929 64.3752C20.4929 62.05 19.2883 60.936 17.7209 60.936C16.1535 60.936 14.9359 62.05 14.9359 64.3752C14.9359 66.7003 16.16 67.8143 17.7209 67.8143Z" fill="black"/>
<path d="M32.0656 67.0569V58.689H34.3454V67.0569C34.3454 68.9352 33.199 70.2888 30.2067 70.2888C27.2145 70.2888 26.0811 68.8898 26.0811 67.0569V58.689H28.3609V67.0569C28.3609 67.8924 28.9243 68.5725 30.2067 68.5725C31.4891 68.5725 32.072 67.9313 32.072 67.0569H32.0656Z" fill="black"/>
<path d="M44.6761 70.0617L40.2525 62.4969V70.0617H37.9727V58.6821H40.2525L44.6761 66.247V58.6821H46.9559V70.0617H44.6761Z" fill="black"/>
<path d="M50.4077 66.7712H52.7134C52.7134 67.9046 53.2056 68.5717 54.2614 68.5717C55.2458 68.5717 55.8417 68.0083 55.8417 67.1857C55.8417 66.2013 55.1681 65.7867 53.536 65.1909C50.9323 64.2388 50.4984 62.9564 50.4984 61.823C50.4984 59.3489 52.2406 58.4551 54.3261 58.4551C57.0075 58.4551 58.0762 60.016 58.0762 61.9719H55.7704C55.7704 60.8385 55.2782 60.1714 54.3132 60.1714C53.4647 60.1714 52.8559 60.6766 52.8559 61.5833C52.8559 62.6844 53.7173 63.0406 55.1811 63.6235C57.7588 64.6987 58.2057 65.6507 58.2057 66.9914C58.2057 69.3425 56.5347 70.2816 54.2873 70.2816C51.4893 70.2816 50.4142 68.7207 50.4142 66.7647L50.4077 66.7712Z" fill="black"/>
<path d="M61.5664 58.6886H68.0431V60.3855H63.8397V63.5267H66.5924V65.2236H63.8397V68.3648H68.0431V70.0617H61.5664V58.6821V58.6886Z" fill="black"/>
<path d="M71.251 58.689H73.5308V68.3717H77.7277V70.0686H71.251V58.689Z" fill="black"/>
<path d="M80.8354 58.689H83.1153V68.3717H87.3122V70.0686H80.8354V58.689Z" fill="black"/>
<path d="M90.4282 70.0617V58.6821H92.708V70.0617H90.4282Z" fill="black"/>
<path d="M103.186 70.0617L98.7627 62.4969V70.0617H96.4829V58.6821H98.7627L103.186 66.247V58.6821H105.466V70.0617H103.186Z" fill="black"/>
<path d="M118.589 64.0449V70.0617H116.309V69.0643C115.894 69.6926 115.046 70.2884 113.615 70.2884C110.946 70.2884 108.893 67.905 108.893 64.3752C108.893 60.8453 110.946 58.4619 114.049 58.4619C116.192 58.4619 118.097 59.6407 118.653 62.4062H116.225C115.745 61.4671 114.916 60.949 113.932 60.949C112.429 60.949 111.264 62.0954 111.264 64.3752C111.264 66.655 112.423 67.8014 113.932 67.8014C114.871 67.8014 115.985 67.3868 116.225 65.7482H114.631V64.0513H118.595L118.589 64.0449Z" fill="black"/>
<path d="M128.124 66.7712H130.429C130.429 67.9046 130.921 68.5717 131.977 68.5717C132.962 68.5717 133.558 68.0083 133.558 67.1857C133.558 66.2013 132.884 65.7867 131.252 65.1909C128.648 64.2388 128.214 62.9564 128.214 61.823C128.214 59.3489 129.956 58.4551 132.042 58.4551C134.723 58.4551 135.792 60.016 135.792 61.9719H133.486C133.486 60.8385 132.994 60.1714 132.029 60.1714C131.181 60.1714 130.572 60.6766 130.572 61.5833C130.572 62.6844 131.433 63.0406 132.897 63.6235C135.475 64.6987 135.922 65.6507 135.922 66.9914C135.922 69.3425 134.251 70.2816 132.003 70.2816C129.205 70.2816 128.13 68.7207 128.13 66.7647L128.124 66.7712Z" fill="black"/>
<path d="M139.289 58.6886H145.766V60.3855H141.562V63.5267H144.315V65.2236H141.562V68.3648H145.766V70.0617H139.289V58.6821V58.6886Z" fill="black"/>
<path d="M151.245 70.0617H148.965V58.6821H154.613C155.83 58.6821 157.32 59.7249 157.32 62.1342C157.32 64.2521 156.16 65.3532 155.053 65.5863L157.585 70.0553H155.26L152.844 65.6317H151.238V70.0553L151.245 70.0617ZM151.245 63.9412H153.615C154.328 63.9412 154.923 63.2094 154.923 62.1407C154.923 61.072 154.328 60.3855 153.615 60.3855H151.245V63.9477V63.9412Z" fill="black"/>
<path d="M164.897 66.5971L167.501 58.689H169.793L166.043 70.0686H163.751L160 58.689H162.293L164.897 66.5971Z" fill="black"/>
<path d="M172.792 70.0617V58.6821H175.072V70.0617H172.792Z" fill="black"/>
<path d="M188.22 66.3373C187.657 69.1223 185.766 70.2816 183.615 70.2816C180.52 70.2816 178.46 67.8981 178.46 64.3683C178.46 60.8385 180.513 58.4551 183.615 58.4551C185.759 58.4551 187.663 59.6338 188.22 62.3994H185.792C185.312 61.4603 184.483 60.9421 183.499 60.9421C181.996 60.9421 180.83 62.0885 180.83 64.3683C180.83 66.6481 181.99 67.7945 183.499 67.7945C184.483 67.7945 185.319 67.2764 185.792 66.3373H188.22Z" fill="black"/>
<path d="M191.459 58.6886H197.936V60.3855H193.739V63.5267H196.491V65.2236H193.739V68.3648H197.936V70.0617H191.459V58.6821V58.6886Z" fill="black"/>
<path d="M200.83 66.7712H203.136C203.136 67.9046 203.628 68.5717 204.684 68.5717C205.668 68.5717 206.264 68.0083 206.264 67.1857C206.264 66.2013 205.59 65.7867 203.958 65.1909C201.355 64.2388 200.921 62.9564 200.921 61.823C200.921 59.3489 202.663 58.4551 204.748 58.4551C207.43 58.4551 208.499 60.016 208.499 61.9719H206.193C206.193 60.8385 205.701 60.1714 204.736 60.1714C203.887 60.1714 203.278 60.6766 203.278 61.5833C203.278 62.6844 204.14 63.0406 205.603 63.6235C208.181 64.6987 208.628 65.6507 208.628 66.9914C208.628 69.3425 206.957 70.2816 204.71 70.2816C201.912 70.2816 200.837 68.7207 200.837 66.7647L200.83 66.7712Z" fill="black"/>
<path d="M21.9045 26.3177H14.4239C13.705 26.3177 13.1609 25.6701 13.2775 24.9641C14.1778 19.5237 20.4861 15.3721 29.2297 15.3721C37.9733 15.3721 44.9682 18.2866 44.9682 29.2323V50.1651C44.9682 50.8063 44.45 51.3244 43.8088 51.3244H36.4059C35.7647 51.3244 35.2466 50.8063 35.2466 50.1651V49.7052C35.2466 48.6884 34.0484 48.1961 33.2971 48.8762C31.0238 50.9423 27.7012 52.2894 22.5522 52.2894C13.6143 52.2894 10.1816 46.9137 10.1816 41.6676C10.1816 29.3553 25.9136 27.9823 34.0419 27.8786C34.7284 27.8722 35.2595 27.2633 35.1753 26.5833C34.6831 22.5289 31.8333 21.7193 29.3528 21.7193C25.8683 21.7193 23.4784 22.9693 23.0185 25.4175C22.9214 25.9486 22.4291 26.3177 21.8916 26.3177H21.9045ZM35.2595 35.2556C35.2595 34.608 34.7284 34.0898 34.0808 34.0963C24.9939 34.2258 20.104 35.9227 20.104 41.0199C20.104 43.222 21.6584 45.7479 25.0911 45.7479C30.5963 45.7479 35.2595 40.6961 35.2595 35.2556Z" fill="black"/>
<path d="M103.115 26.3177H95.6348C94.9159 26.3177 94.3719 25.6701 94.4885 24.9641C95.3887 19.5237 101.697 15.3721 110.441 15.3721C119.184 15.3721 126.179 18.2866 126.179 29.2323V50.1651C126.179 50.8063 125.661 51.3244 125.02 51.3244H117.617C116.976 51.3244 116.458 50.8063 116.458 50.1651V49.7052C116.458 48.6884 115.259 48.1961 114.508 48.8762C112.235 50.9423 108.912 52.2894 103.763 52.2894C94.8252 52.2894 91.3926 46.9137 91.3926 41.6676C91.3926 29.3553 107.125 27.9823 115.253 27.8786C115.939 27.8722 116.47 27.2633 116.386 26.5833C115.894 22.5289 113.044 21.7193 110.564 21.7193C107.079 21.7193 104.689 22.9693 104.229 25.4175C104.132 25.9486 103.64 26.3177 103.102 26.3177H103.115ZM116.47 35.2556C116.47 34.608 115.939 34.0898 115.292 34.0963C106.205 34.2258 101.315 35.9227 101.315 41.0199C101.315 43.222 102.869 45.7479 106.302 45.7479C111.807 45.7479 116.47 40.6961 116.47 35.2556Z" fill="black"/>
<path d="M131.977 17.7031H137.767C138.583 17.7031 139.309 18.2277 139.568 19.005L143.875 32.0037C144.451 33.7395 146.906 33.733 147.476 32.0037L151.731 19.0179C151.984 18.2407 152.716 17.7161 153.532 17.7161H159.322C160.611 17.7161 161.524 18.979 161.122 20.2031L150.973 51C150.714 51.7772 149.989 52.3018 149.173 52.3018H142.133C141.317 52.3018 140.591 51.7772 140.332 51L130.183 20.2031C129.781 18.979 130.695 17.7161 131.984 17.7161L131.977 17.7031Z" fill="black"/>
<path d="M175.261 26.3177H167.781C167.062 26.3177 166.518 25.6701 166.634 24.9641C167.535 19.5237 173.843 15.3721 182.587 15.3721C191.33 15.3721 198.325 18.2866 198.325 29.2323V50.1651C198.325 50.8063 197.807 51.3244 197.166 51.3244H189.763C189.122 51.3244 188.604 50.8063 188.604 50.1651V49.7052C188.604 48.6884 187.405 48.1961 186.654 48.8762C184.381 50.9423 181.058 52.2894 175.909 52.2894C166.971 52.2894 163.539 46.9137 163.539 41.6676C163.539 29.3553 179.271 27.9823 187.399 27.8786C188.085 27.8722 188.616 27.2633 188.532 26.5833C188.04 22.5289 185.19 21.7193 182.71 21.7193C179.225 21.7193 176.835 22.9693 176.375 25.4175C176.278 25.9486 175.786 26.3177 175.249 26.3177H175.261ZM188.616 35.2556C188.616 34.608 188.085 34.0898 187.438 34.0963C178.351 34.2258 173.461 35.9227 173.461 41.0199C173.461 43.222 175.015 45.7479 178.448 45.7479C183.953 45.7479 188.616 40.6961 188.616 35.2556Z" fill="black"/>
<path d="M172.735 10.6505L172.237 6.70616C172.126 5.84475 173.091 4.93801 174.665 4.42635L186.829 0.469067C187.042 0.397823 187.269 0.346012 187.509 0.320105C188.571 0.184094 189.484 0.507931 189.555 1.03902L190.216 6.22688C190.274 6.70616 189.711 7.21134 188.817 7.48336L175.805 11.3435C174.393 11.7645 172.845 11.4147 172.748 10.657L172.735 10.6505Z" fill="black"/>
<path d="M73.4665 16.344C69.4963 16.344 65.4418 18.287 62.9224 21.0331C62.2747 21.7456 61.096 21.2922 61.096 20.3272V8.97347C61.096 7.82709 60.0143 6.99159 58.9068 7.28304L52.6827 8.91518C51.9184 9.11596 51.3809 9.80897 51.3809 10.6056V51.2406C51.3809 51.8235 51.8537 52.2963 52.4366 52.2963H60.0467C60.6296 52.2963 61.1024 51.8235 61.1024 51.2406V32.6653C61.1024 27.6783 65.118 24.3751 69.6517 24.3751C72.3719 24.3751 76.5818 25.7352 76.5818 31.9529V51.2406C76.5818 51.8235 77.0546 52.2963 77.6375 52.2963H85.2477C85.8306 52.2963 86.3034 51.8235 86.3034 51.2406V29.4918C86.3034 19.8414 78.7256 16.344 73.4795 16.344H73.4665Z" fill="black"/>
</svg>
